<svg id="Layer_1" data-name="Layer 1" xmlns="http://www.w3.org/2000/svg" viewBox="0 0 100 100"><defs><style>.cls-1{fill:#96e8f7;}.cls-2{fill:#fff;}</style></defs><title>Artboard 1</title><rect class="cls-1" width="100" height="100"/><path class="cls-2" d="M23.8,70.87c.05-1.74.16-3.49.13-5.24a5,5,0,0,1,.84-2.7,11.94,11.94,0,0,0,1.56-4.15,5,5,0,0,0-.13-2c-.42-1.79-.66-3.6-1-5.41-.13-.75-.35-1.48-.5-2.23-.12-.57-.61-.81-1-1.12a48.57,48.57,0,0,1-5.94-5.35,17.83,17.83,0,0,1-3-4.41A10.59,10.59,0,0,1,14,34.42a13,13,0,0,1,.43-4.48A5.13,5.13,0,0,1,16,27.46a9.32,9.32,0,0,1,2.92-1.86,4.24,4.24,0,0,1,3.45.2,2.48,2.48,0,0,1,1.78,2.53.81.81,0,0,1-1.19.74,5.44,5.44,0,0,0-1.29-.43,2.79,2.79,0,0,0-1.94.49,6.15,6.15,0,0,0-1.09.89,3.4,3.4,0,0,0-.81,2.53A12,12,0,0,0,18,34.62,8.05,8.05,0,0,0,19.39,38a30.34,30.34,0,0,0,2.83,3.74,6.12,6.12,0,0,0,2.36,1.54,10.33,10.33,0,0,0,2.58.74,1.77,1.77,0,0,0,1.11-.19c1.63-.81,3.24-1.65,4.91-2.37A45.51,45.51,0,0,1,43,38.48c2.41-.44,4.81-.89,7.2-1.45,2-.46,4-.78,6-1.3a9.67,9.67,0,0,0,1.67-.57A3.62,3.62,0,0,0,59.13,34a28.61,28.61,0,0,0,2.12-3.35,9.44,9.44,0,0,1,1.45-1.76,10.69,10.69,0,0,0,2-3.22A13.36,13.36,0,0,1,65.62,24c.12-.19.24-.34.47-.16a.08.08,0,0,0,.08,0c.6-.24.64.24.77.6s.35,1,.51,1.44c.22.67.21.68.9.7a4.84,4.84,0,0,1,2.9.9,14.51,14.51,0,0,0,1.6,1.2c.35.19.67.43,1,.64a1.42,1.42,0,0,1,.8,1.84c-.12.56-.25,1.12-.34,1.69a.65.65,0,0,1-.38.52c-.59.29-1.17.61-1.77.87a4.46,4.46,0,0,0-2,1.92,7.72,7.72,0,0,0-1,3.24A3.38,3.38,0,0,0,69.66,41c.63,1.75,1.34,3.47,2,5.22A8.32,8.32,0,0,0,74.33,50a25.94,25.94,0,0,0,4,2.72c1.42.76,2.87,1.49,4.34,2.17a.46.46,0,0,0,.38,0c.31-.13.63-.22.94-.35a1.89,1.89,0,0,1,1.78.29.64.64,0,0,1,.28.74A1.58,1.58,0,0,1,85,56.8c-.73.26-1.46.53-2.18.81a.71.71,0,0,1-.62-.06,9,9,0,0,0-2.39-.65,16.53,16.53,0,0,1-2.64-.84Q74.07,55,71,53.9c-.88-.3-1.76-.62-2.64-.95a2.19,2.19,0,0,1-.88-.61,2.1,2.1,0,0,0-.94-.59L64.25,51a.53.53,0,0,0-.56.13,5.65,5.65,0,0,1-2.15,1.2A3,3,0,0,0,59.48,55c-.36,2.06-.63,4.13-.85,6.2a13.43,13.43,0,0,0-.08,1.67c0,.61.17.76.77.85a1.56,1.56,0,0,1,1.38,1,.73.73,0,0,1-.41,1.08,13.46,13.46,0,0,1-2.14.81,1.13,1.13,0,0,1-1.42-.73,13.73,13.73,0,0,1-1.23-4.69,25.69,25.69,0,0,0-1.06-5.83c0-.16-.13-.3-.18-.45-.08-.34-.31-.42-.63-.42-1,0-2,.19-3,.18a3.61,3.61,0,0,0-2.33.9,13.3,13.3,0,0,1-3.17,1.54c-.95.39-1.9.79-2.86,1.16a.66.66,0,0,0-.45.6l-.18,1.55a11.56,11.56,0,0,1-.83,2.76,17.77,17.77,0,0,0-1,3.52,1.77,1.77,0,0,0,1.14,2l1.92,1a2.12,2.12,0,0,0,1.58.23,2.15,2.15,0,0,1,1.63.19c.29.17.63.33.64.76a1,1,0,0,1-.64,1c-.62.26-1.27.46-1.85.77a2.05,2.05,0,0,1-2.17-.1c-1.11-.63-2.28-1.16-3.37-1.85a13.59,13.59,0,0,1-3.13-2.47,3.13,3.13,0,0,1-.72-1.5c-.19-.94-.34-1.89-.53-2.84a2,2,0,0,0-.46-1.08.33.33,0,0,0-.5-.05C31.77,64,29.92,65,28.33,66.44a4,4,0,0,0-1.52,3c0,.74,0,1.47-.08,2.21a5.57,5.57,0,0,0,.47,2.17,4,4,0,0,1,.24,1.06,1.38,1.38,0,0,1-.58,1.21.67.67,0,0,1-.68.12,6,6,0,0,1-1.64-.91.46.46,0,0,1-.19-.3C24.2,73.6,23.83,72.26,23.8,70.87Z"/></svg>